<svg width="61" height="60" viewBox="0 0 61 60" fill="none" xmlns="http://www.w3.org/2000/svg">
<g clip-path="url(#clip0_159_1212)">
<path d="M41.8198 6.41792L35.8198 12.3881L22.2676 12.3284L8.68549 12.2388L8.53623 7.61195L8.38698 2.98508L6.92429 3.04478C4.83474 3.10448 2.984 4.35822 1.90937 6.38807L1.07355 8.00001L1.13325 28.5075L1.2228 48.9851L2.02877 50.2388C2.47653 50.8955 3.49146 51.8508 4.26758 52.2985L5.70041 53.1343L19.9989 53.2239L34.2974 53.3433L31.7004 55.9403C30.2974 57.3433 29.1332 58.7463 29.1332 59.0448C29.1332 59.5224 30.1482 59.5522 44.8049 59.5522H60.4765V44.0299C60.4765 26.2687 60.5959 27.0746 58.0586 29.5821L56.5959 31.0149V22.3881C56.5959 17.6119 56.5064 13.4328 56.4168 13.0448C56.2377 12.4179 56.1183 12.3881 52.6855 12.3881C50.7153 12.3881 49.1332 12.3284 49.1332 12.2687C49.1332 12.209 50.1183 11.194 51.3422 10.0299C55.1929 6.26867 55.3124 5.31344 52.2676 2.29852C50.5362 0.626873 50.2377 0.447769 49.1034 0.447769C47.8497 0.447769 47.7303 0.537323 41.8198 6.41792ZM50.984 3.6418C51.9392 4.59702 52.7153 5.49255 52.7153 5.67165C52.7153 5.85075 52.2676 6.41792 51.7303 6.95523L50.7452 7.91046L48.8347 5.97016L46.9243 4.05971L47.4915 3.37314C48.178 2.56717 48.8944 1.94031 49.1034 1.94031C49.1929 1.94031 50.0288 2.71643 50.984 3.6418ZM7.1034 18.1194L7.19295 31.6418L7.87952 31.7314L8.53623 31.8209V23.0149V14.1791H21.2825H34.0586L31.581 16.6567C29.1631 19.0746 28.6855 20 29.6109 20.3582C29.9392 20.4776 31.8497 18.7463 36.3273 14.2985L42.5661 8.05971L44.5661 10.0896L46.5959 12.0896L37.5512 21.1045L28.5362 30.1493L26.5362 28.1493L24.5064 26.1194L26.4168 24.209C27.7004 22.8955 28.2676 22.1493 28.1482 21.8209C27.79 20.8657 26.8049 21.3731 24.6258 23.6418C22.387 25.9403 22.3571 26 20.9541 30.0597L19.5213 34.1791H17.9392C16.1482 34.1791 15.3422 34.7463 15.9989 35.5224C16.3273 35.9105 18.0288 35.9702 28.9541 35.9105L41.5213 35.8209L41.6109 35.1343C41.6706 34.7761 41.6706 34.4478 41.6109 34.4179C41.5512 34.3881 37.5512 34.2687 32.7153 34.1791L23.9094 34.0299L25.5512 33.4627C28.8646 32.3284 29.5213 31.7911 38.387 22.9552L47.1929 14.1791H51.0138H54.8049V23.4925V32.8358L48.3571 39.2836C43.7303 43.9403 41.9392 45.9105 42.0586 46.2388C42.178 46.5075 42.4765 46.7164 42.775 46.7164C43.0735 46.7164 46.6556 43.3731 50.9243 39.1045C55.1034 34.9254 58.6258 31.4925 58.775 31.4925C58.8944 31.4925 58.9541 33.1343 58.9243 35.1343L58.8347 38.806L57.79 38.9552C57.0138 39.0746 56.7153 39.2537 56.6556 39.7612C56.5661 40.3284 56.7153 40.4179 57.7004 40.5075C58.8347 40.597 58.8347 40.597 58.9243 42L59.0138 43.4328H57.8198C56.7153 43.4328 56.5959 43.5224 56.5959 44.1493C56.5959 44.7761 56.7452 44.8955 57.7303 44.9851C58.8049 45.0746 58.8347 45.1045 58.9243 46.3582C59.0138 47.5522 58.984 47.6119 58.178 47.6119C57.0735 47.6119 56.5064 48 56.6556 48.6866C56.7153 49.1045 57.0437 49.2836 57.8795 49.3433C58.984 49.4328 58.984 49.4627 58.984 50.7463C58.984 52.0299 58.984 52.0597 57.8795 52.1493C56.8944 52.2388 56.7452 52.3284 56.7452 52.9851C56.7452 53.6418 56.8944 53.7314 57.8795 53.8209L59.0138 53.9105L58.9243 55.9105L58.8347 57.9105L45.6407 58C38.3571 58.0299 32.4168 57.9702 32.4168 57.8209C32.4168 57.7015 34.3571 55.6716 36.7452 53.2836C39.1332 50.8955 41.0735 48.7463 41.0735 48.4776C41.0735 48.209 40.8646 47.8806 40.5959 47.7911C40.2377 47.6418 39.4915 48.1791 38.0885 49.5522L36.0586 51.4925H21.4318C11.8198 51.4925 6.50638 51.3731 5.93922 51.1642C4.65564 50.6866 3.19295 49.1045 2.83474 47.8508C2.05862 44.9552 4.83474 41.6418 8.02877 41.6418C8.47653 41.6418 8.53623 41.2537 8.53623 37.7911C8.53623 35.6418 8.41683 33.8508 8.26758 33.7612C8.11832 33.6418 7.78997 33.6716 7.52131 33.7612C7.1631 33.9105 7.0437 34.5672 6.98399 36.9552L6.89444 40L5.73026 40.3881C5.1034 40.597 4.20788 41.0149 3.76011 41.3433C3.2825 41.6716 2.83474 41.9403 2.74519 41.9403C2.38698 41.9403 2.53623 9.25374 2.89444 8.17911C3.43176 6.56717 5.49146 4.71643 6.80489 4.62687C6.92429 4.62687 7.07355 10.7164 7.1034 18.1194ZM47.5213 7.49255L49.2228 9.43285L48.5959 10.0896L47.9392 10.7164L45.9989 8.80598L44.0586 6.89553L44.7153 6.20897C45.0735 5.8209 45.4616 5.5224 45.581 5.5224C45.7004 5.5224 46.5661 6.38807 47.5213 7.49255ZM25.4019 29.7015L26.8347 31.1642L26.0288 31.4925C25.581 31.6418 24.984 31.7911 24.7153 31.7911C24.1482 31.7911 22.8646 30.6269 22.8646 30.1194C22.8646 29.5224 23.4318 28.209 23.7004 28.209C23.8198 28.209 24.5959 28.8657 25.4019 29.7015Z" fill="black"/>
<path d="M48.1183 47.2535C44.5363 50.8655 43.1333 52.4774 43.2228 52.8655C43.3124 53.4028 43.6706 53.4326 48.6855 53.4326H54.0586V47.9102C54.0586 43.2535 53.9989 42.3878 53.6109 42.2983C53.3721 42.2684 50.9542 44.4475 48.1183 47.2535ZM52.6557 48.7162L52.5661 51.6416L49.4318 51.7311L46.2974 51.8207L49.2825 48.8058C50.9243 47.164 52.3572 45.8207 52.5064 45.8207C52.6258 45.8207 52.6855 47.1341 52.6557 48.7162Z" fill="black"/>
</g>
<defs>
<clipPath id="clip0_159_1212">
<rect width="60" height="60" fill="white" transform="translate(0.775024)"/>
</clipPath>
</defs>
</svg>
